<?xml version="1.0" encoding="utf-8"?>
<!-- Generator: Adobe Illustrator 16.0.0, SVG Export Plug-In . SVG Version: 6.00 Build 0)  -->
<!DOCTYPE svg PUBLIC "-//W3C//DTD SVG 1.1//EN" "http://www.w3.org/Graphics/SVG/1.1/DTD/svg11.dtd">
<svg version="1.1" id="图层_1" xmlns="http://www.w3.org/2000/svg" xmlns:xlink="http://www.w3.org/1999/xlink" x="0px" y="0px"
	 width="200px" height="200px" viewBox="0 0 200 200" enable-background="new 0 0 200 200" xml:space="preserve">
<path fill="#AA5EE5" d="M138.27-1v49.664c0,5.876,4.613,10.64,10.303,10.64h48.074L138.27-1z"/>
<path fill="#AA5EE5" d="M145.782,22.506l31.239,31.24H147.91c-1.174,0-2.128-0.954-2.128-2.128V22.506 M137.27,1.956V51.62
	c0,5.876,4.767,10.64,10.643,10.64h49.662L137.27,1.956z"/>
<path fill="#AA5EE5" d="M138.748,1.956H67.793c-17.508,0-31.763,12.734-32.623,28.728h9.204
	c0.847-11.276,11.014-20.216,23.419-20.216h67.142l55.862,51.66v105.668c0,11.983-10.544,21.733-23.503,21.733H67.791
	c-12.958,0-23.501-9.75-23.501-21.733v-52.292h-9.205v52.294c0,16.704,14.643,30.246,32.706,30.246h99.503
	c18.064,0,32.706-13.542,32.706-30.246V58.604L138.748,1.956z"/>
<path fill="#AA5EE5" stroke="#1082FF" stroke-width="5" stroke-miterlimit="10" d="M48.32,99.074h-9.482l-3.77-12.314H17.812
	l-3.565,12.314H5l16.813-54.212h9.217L48.32,99.074z M32.272,77.627l-5.95-20.114l-5.831,20.114H32.272L32.272,77.627z
	 M91.875,99.074h-9.481L78.625,86.76h-17.26l-3.562,12.314h-9.248l16.816-54.212h9.215L91.875,99.074z M75.825,77.627l-5.951-20.114
	l-5.831,20.114H75.825L75.825,77.627z M124.121,79.144l8.451,3.364c-1.295,5.917-3.453,10.311-6.465,13.185
	c-3.012,2.872-6.838,4.308-11.467,4.308c-5.736,0-10.447-2.457-14.14-7.375c-3.691-4.92-5.537-11.642-5.537-20.174
	c0-9.021,1.855-16.029,5.565-21.021c3.712-4.99,8.591-7.488,14.638-7.488c5.281,0,9.572,1.961,12.867,5.879
	c1.965,2.315,3.437,5.644,4.418,9.983l-8.629,2.591c-0.511-2.813-1.576-5.03-3.193-6.659c-1.618-1.624-3.592-2.441-5.903-2.441
	c-3.199,0-5.795,1.444-7.789,4.328c-1.992,2.882-2.988,7.555-2.988,14.015c0,6.852,0.98,11.733,2.943,14.642
	c1.967,2.912,4.52,4.365,7.657,4.365c2.314,0,4.31-0.925,5.976-2.777C122.195,86.02,123.393,83.114,124.121,79.144z"/>
<path fill="#4191FB" d="M136.874,142.268v-29c0-0.533-0.081-1.066,0.162-1.602c0.333-0.832,1.813-1.398,4.687-1.5
	c2.957-0.1,4.846,0.4,5.587,1.201c0.573,0.6,0.738,1.266,0.738,1.898v58c0,0.567-0.082,1.168-0.575,1.733
	c-0.741,0.867-2.545,1.435-5.75,1.334c-3.122-0.101-4.685-0.733-4.767-1.634c-0.08-0.534-0.08-1.067-0.08-1.602v-28.83H136.874z
	 M132.654,142.1c0,5.066,0.078,10.135-0.077,15.234c0,1.266,0.387,2.732-5.347,2.934c-3.64,0.133-5.809-0.899-5.809-2.867
	c-0.076-10.133,0-20.301,0-30.434c0-0.199,0-0.434,0.076-0.633c0.541-1.102,1.473-2.268,5.732-2.234
	c4.339,0.033,5.269,1.168,5.269,2.301C132.654,131.633,132.654,136.867,132.654,142.1z M163.534,142.232
	c0,3.899,0.08,7.801,0,11.668c0,2-2.431,3.199-6.077,3.033c-5.672-0.302-5.592-1.733-5.592-3c-0.08-7.769-0.08-15.566,0-23.367
	c0-2.033,2.188-3.133,5.835-3.133c3.806,0,5.834,1.032,5.834,3.1C163.614,134.467,163.534,138.334,163.534,142.232L163.534,142.232z
	 M95.406,142.268v-12c0-0.533,0-1.066,0.245-1.602c0.368-0.666,1.526-1.133,3.297-1.199s3.115,0.268,3.97,0.867
	c0.915,0.633,0.855,1.332,0.855,2.033V154.4c-0.063,1.266-0.733,2.533-4.518,2.533c-3.787,0-3.908-1.269-3.908-2.468
	C95.468,150.4,95.406,146.334,95.406,142.268z M117.552,142.268v8.299c0,1.135-0.389,2.302-4.231,2.302
	c-3.648,0-4.625-1.134-4.691-2.234c-0.129-5.532-0.129-11.065,0-16.633c0-1.2,1.108-2.367,5.015-2.3
	c3.713,0.066,3.908,1.3,3.908,2.398V142.268z M91.194,142.2v7.2c0,1.1-0.699,2.133-4.895,2.166c-4.117,0.033-5.438-1-5.516-2.066
	c-0.155-4.9-0.155-9.8,0-14.732c0-1.066,1.399-2.135,5.516-2.102c4.196,0.034,4.973,1.066,4.973,2.168
	C91.115,137.268,91.194,139.732,91.194,142.2z M72.856,138.55c3.144,0.238,4.747,1.972,4.809,4.652
	c0.063,2.522-1.541,4.491-4.376,4.491c-2.775,0-4.44-1.811-4.502-4.413C68.725,140.758,69.958,138.945,72.856,138.55z
	 M180.5,141.934c-0.378,5.02-2.546,8.558-6.786,8.26c-4.051-0.146-6.879-3.541-6.879-8.408c-0.093-4.575,2.074-8.563,6.502-8.563
	C177.77,133.523,180.028,136.915,180.5,141.934L180.5,141.934z"/>
</svg>
