<?xml version="1.0" encoding="utf-8"?>
<!-- Generator: Adobe Illustrator 16.0.0, SVG Export Plug-In . SVG Version: 6.00 Build 0)  -->
<!DOCTYPE svg PUBLIC "-//W3C//DTD SVG 1.1//EN" "http://www.w3.org/Graphics/SVG/1.1/DTD/svg11.dtd">
<svg version="1.1" id="图层_1" xmlns="http://www.w3.org/2000/svg" xmlns:xlink="http://www.w3.org/1999/xlink" x="0px" y="0px"
	 width="200px" height="200px" viewBox="0 0 200 200" enable-background="new 0 0 200 200" xml:space="preserve">
<path fill="#AA5EE5" d="M139.27-1v49.664c0,5.876,4.613,10.64,10.303,10.64h48.074L139.27-1z"/>
<path fill="#AA5EE5" d="M149.208,20.55l31.239,31.24h-29.111c-1.174,0-2.128-0.954-2.128-2.128V20.55 M140.695,0v49.664
	c0,5.876,4.767,10.64,10.643,10.64H201L140.695,0z"/>
<path fill="#AA5EE5" d="M140.422,1.956H69.007c-17.623,0-31.969,12.734-32.836,28.728h9.264
	c0.854-11.276,11.087-20.216,23.572-20.216h67.577l56.227,51.66v105.668c0,11.983-10.613,21.733-23.656,21.733H69.005
	c-13.043,0-23.654-9.75-23.654-21.733v-52.292h-9.265v52.294c0,16.704,14.738,30.246,32.919,30.246h100.15
	c18.182,0,32.919-13.542,32.919-30.246V58.604L140.422,1.956z"/>
<path fill="#207FE5" d="M156.516,109.982h-0.367l-48.25,4.797c-2.582,0-4.797,1.838-4.797,4.133l0.109,37.156
	c-2.584-1.533-5.535-2.451-8.668-2.451c-7.93,0-14.203,5.207-14.203,11.791c0,6.583,6.455,11.79,14.203,11.79
	s14.018-5.207,14.203-11.79v-32.463l47.176-4.217l0.045,19.987c-2.398-1.53-5.533-2.45-8.67-2.45
	c-7.93,0-14.201,5.358-14.201,11.791c0,6.582,6.455,11.788,14.201,11.788c3.689,0,7.378-1.225,9.962-3.366
	c2.765-2.144,4.241-5.053,4.241-8.27V113.96C161.497,111.665,159.1,109.827,156.516,109.982z"/>
<path fill="#434260" stroke="#000000" stroke-width="4" stroke-miterlimit="10" d="M35.708,82.482H17.131l-4.599,16.367H4
	L21.73,41.5h9.742l17.729,57.349h-9.016L35.708,82.482z M33.469,75.338l-2.118-7.729c-1.815-6.495-3.389-12.6-5.083-19.094
	c-1.513,6.494-3.207,12.989-4.962,19.094l-2.178,7.729H33.469z M56.221,41.5h16.157c12.101,0,20.392,4.352,20.392,17.276
	c0,12.925-8.472,18.315-20.091,18.315h-8.047v21.757H56.22L56.221,41.5L56.221,41.5z M71.894,70.143
	c8.592,0,12.646-3.507,12.646-11.042c0-7.535-4.477-10.392-12.949-10.392h-6.958v21.433L71.894,70.143L71.894,70.143z M103.178,41.5
	h31.586v7.535H111.59v15.977h19.604v7.664H111.59v18.51h24.202v7.663h-32.614V41.5z"/>
</svg>
