<?xml version="1.0" encoding="utf-8"?>
<!-- Generator: Adobe Illustrator 16.0.0, SVG Export Plug-In . SVG Version: 6.00 Build 0)  -->
<!DOCTYPE svg PUBLIC "-//W3C//DTD SVG 1.1//EN" "http://www.w3.org/Graphics/SVG/1.1/DTD/svg11.dtd">
<svg version="1.1" id="图层_1" xmlns="http://www.w3.org/2000/svg" xmlns:xlink="http://www.w3.org/1999/xlink" x="0px" y="0px"
	 width="200px" height="200px" viewBox="0 0 200 200" enable-background="new 0 0 200 200" xml:space="preserve">
<path fill="#30F2E9" d="M128.336,0c2.107,0,4.146,0.709,5.748,2l56.32,45.5c1.964,1.583,3.096,3.897,3.096,6.333V175
	c0,13.238-10.947,24.182-24.97,24.959L166.975,200H43.192c-14.045,0.001-25.657-10.318-26.48-23.533L16.667,175V25
	c0-13.238,10.947-24.182,24.97-24.958L43.192,0H128.336z M113.926,16.667H43.192c-4.483,0-8.255,3.163-8.78,7.358L34.35,25v150
	c0,4.225,3.356,7.781,7.807,8.275l1.035,0.059h123.783c4.483-0.001,8.255-3.163,8.779-7.359l0.062-0.975V66.667h-35.365
	c-13.456,0.002-24.779-9.489-26.349-22.083l-0.133-1.45l-0.044-1.467v-25H113.926z M139.114,75.333
	c5.438-1.292,10.063,1.3,10.176,5.55v53.1c0,6.852-9.019,13.326-19.894,14.343c-11.095,0.925-19.894-3.417-19.894-10.267
	c0-6.851,9.019-13.326,19.894-14.334c7.402-0.658,11.565,1.19,11.565,1.19v-30.25c0-3.233-4.509-2.033-4.509-2.033l-40.823,9.992
	c0,0-4.739,1.291-4.739,4.351V143.7c0,6.841-8.098,13.225-18.965,14.433c-11.104,1.201-19.893-3.058-19.893-9.9
	c0-6.941,9.019-13.416,19.894-14.615c7.4-0.834,10.751,0.916,10.751,0.916V96.517c0-4.342,4.509-8.875,10.177-10.167L139.114,75.333
	z M131.607,26.45v15.216c0,4.225,3.355,7.781,7.807,8.275L140.45,50h20.309L131.607,26.45z"/>
</svg>
