<?xml version="1.0" encoding="utf-8"?>
<!-- Generator: Adobe Illustrator 16.0.0, SVG Export Plug-In . SVG Version: 6.00 Build 0)  -->
<!DOCTYPE svg PUBLIC "-//W3C//DTD SVG 1.1//EN" "http://www.w3.org/Graphics/SVG/1.1/DTD/svg11.dtd">
<svg version="1.1" id="图层_1" xmlns="http://www.w3.org/2000/svg" xmlns:xlink="http://www.w3.org/1999/xlink" x="0px" y="0px"
	 width="200px" height="200px" viewBox="0 0 200 200" enable-background="new 0 0 200 200" xml:space="preserve">
<path fill="#EFEFEF" d="M100,12.5c-48.325,0-87.5,39.175-87.5,87.5s39.175,87.5,87.5,87.5s87.5-39.175,87.5-87.5
	S148.325,12.5,100,12.5z M153.033,153.033c-6.893,6.892-14.914,12.301-23.844,16.078C119.951,173.019,110.131,175,100,175
	c-10.13,0-19.951-1.981-29.189-5.889c-8.93-3.777-16.952-9.187-23.844-16.078c-6.892-6.893-12.301-14.914-16.078-23.844
	C26.981,119.951,25,110.131,25,100c0-10.13,1.981-19.951,5.889-29.189c3.777-8.93,9.187-16.952,16.078-23.844
	c6.892-6.892,14.914-12.301,23.844-16.078C80.049,26.981,89.87,25,100,25c10.131,0,19.951,1.981,29.189,5.889
	c8.93,3.777,16.951,9.187,23.844,16.078c6.892,6.892,12.301,14.914,16.078,23.844C173.019,80.049,175,89.87,175,100
	c0,10.131-1.981,19.951-5.889,29.189C165.334,138.119,159.925,146.141,153.033,153.033z"/>
<path fill="#EFEFEF" d="M138.198,70.806l-50.607,50.608l-25.789-25.79c-2.441-2.44-6.398-2.44-8.839,0
	c-2.441,2.441-2.441,6.398,0,8.839l30.208,30.209c1.22,1.221,2.82,1.83,4.419,1.83c1.599,0,3.199-0.609,4.419-1.83l55.027-55.027
	c2.441-2.44,2.441-6.398,0-8.839C144.597,68.365,140.639,68.365,138.198,70.806z"/>
</svg>
