<?xml version="1.0" encoding="utf-8"?>
<!-- Generator: Adobe Illustrator 16.0.0, SVG Export Plug-In . SVG Version: 6.00 Build 0)  -->
<!DOCTYPE svg PUBLIC "-//W3C//DTD SVG 1.1//EN" "http://www.w3.org/Graphics/SVG/1.1/DTD/svg11.dtd">
<svg version="1.1" id="图层_1" xmlns="http://www.w3.org/2000/svg" xmlns:xlink="http://www.w3.org/1999/xlink" x="0px" y="0px"
	 width="200px" height="200px" viewBox="0 0 200 200" enable-background="new 0 0 200 200" xml:space="preserve">
<path fill="#D8D8D8" d="M74.219,85.867c0-0.863,0.7-1.563,1.563-1.563h12.5c0.863,0,1.563,0.7,1.563,1.563v46.875
	c0,0.863-0.7,1.563-1.563,1.563h-12.5c-0.863,0-1.563-0.699-1.563-1.563V85.867z M125.781,85.867c0-0.863-0.699-1.563-1.563-1.563
	h-12.5c-0.863,0-1.563,0.7-1.563,1.563v46.875c0,0.863,0.699,1.563,1.563,1.563h12.5c0.863,0,1.563-0.699,1.563-1.563V85.867z"/>
<path fill="#EDEDED" d="M56.408,38.506V14.204c0-3.703,3.515-6.704,7.852-6.704h78.521c4.335,0,7.852,3.001,7.852,6.704v24.302
	h44.904c1.085,0,1.963,0.75,1.963,1.676v13.408c0,0.925-0.878,1.676-1.963,1.676h-13.496v133.03c0,3.702-3.517,6.704-7.852,6.704
	H32.852c-4.336,0-7.852-3.002-7.852-6.704V55.266H10.768c-1.083,0-1.963-0.751-1.963-1.676V40.182c0-0.925,0.879-1.676,1.963-1.676
	H56.408z M78.32,24.125v13.281h43.75V24.125H78.32z M53.32,53.031V167.68h93.75V53.031H53.32z"/>
</svg>
