<?xml version="1.0" encoding="utf-8"?>
<!-- Generator: Adobe Illustrator 16.0.0, SVG Export Plug-In . SVG Version: 6.00 Build 0)  -->
<!DOCTYPE svg PUBLIC "-//W3C//DTD SVG 1.1//EN" "http://www.w3.org/Graphics/SVG/1.1/DTD/svg11.dtd">
<svg version="1.1" id="图层_1" xmlns="http://www.w3.org/2000/svg" xmlns:xlink="http://www.w3.org/1999/xlink" x="0px" y="0px"
	 width="200px" height="200px" viewBox="0 0 200 200" enable-background="new 0 0 200 200" xml:space="preserve">
<path fill="#FCFCB4" d="M183.334,58.333V175c0,13.807-11.194,25-25,25H41.667c-13.806,0-25-11.193-25-25V25
	c0-13.806,11.194-25,25-25H125L183.334,58.333L183.334,58.333z M125,58.333h34.767L125,23.569V58.333z M166.666,175V75h-58.332
	V16.667H41.667c-2.21-0.002-4.331,0.875-5.894,2.44c-1.564,1.562-2.442,3.683-2.439,5.894v150c0,3.002,1.529,4.981,2.439,5.892
	c1.561,1.567,3.682,2.446,5.894,2.442h116.667c3.002,0,4.98-1.529,5.891-2.442S166.666,178.002,166.666,175z"/>
</svg>
