<?xml version="1.0" standalone="no"?><!DOCTYPE svg PUBLIC "-//W3C//DTD SVG 1.1//EN" "http://www.w3.org/Graphics/SVG/1.1/DTD/svg11.dtd"><svg t="1768555444451" class="icon" viewBox="0 0 1024 1024" version="1.1" xmlns="http://www.w3.org/2000/svg" p-id="7725" xmlns:xlink="http://www.w3.org/1999/xlink" width="200" height="200"><path d="M836.855172 0v217.158621h132.413794zM490.813793 150.068966c-1.765517 5.296552-3.531034 12.358621-5.296552 17.655172l-17.655172 47.668965h49.434483l-17.655173-45.903448c-3.531034-5.296552-7.062069-12.358621-8.827586-19.420689z" fill="#FE4579" p-id="7726"></path><path d="M969.268966 296.606897V247.172414h-167.724138V0H54.731034v1024H971.034483l-1.765517-727.393103zM600.275862 150.068966c8.827586-15.889655 19.42069-28.248276 33.544828-35.310345 14.124138-8.827586 31.77931-12.358621 47.668965-12.358621 19.42069 0 37.075862 5.296552 51.2 15.889655 14.124138 10.593103 22.951724 24.717241 28.248276 44.137931l1.765517 5.296552-35.310345 8.827586-1.765517-5.296552c-3.531034-12.358621-10.593103-21.186207-17.655172-28.248275-7.062069-5.296552-17.655172-8.827586-28.248276-8.827587-14.124138 0-24.717241 3.531034-33.544828 8.827587-8.827586 7.062069-15.889655 14.124138-19.420689 24.717241-3.531034 10.593103-5.296552 22.951724-5.296552 35.310345 0 15.889655 1.765517 28.248276 7.062069 40.606896 3.531034 10.593103 10.593103 19.42069 19.42069 24.717242 8.827586 5.296552 19.42069 8.827586 30.013793 8.827586 12.358621 0 22.951724-3.531034 31.77931-10.593104 8.827586-7.062069 14.124138-17.655172 17.655172-33.544827l1.765518-5.296552 35.310345 8.827586-1.765518 5.296552c-5.296552 21.186207-15.889655 38.841379-30.013793 49.434483-14.124138 12.358621-31.77931 17.655172-52.965517 17.655172s-38.841379-5.296552-52.965517-14.124138c-14.124138-8.827586-24.717241-21.186207-31.779311-38.841379-7.062069-15.889655-10.593103-33.544828-10.593103-52.965517 5.296552-19.42069 8.827586-37.075862 15.889655-52.965517zM271.889655 105.931034h35.310345v167.724138h93.572414v22.951725L473.158621 105.931034h33.544827l81.213793 199.503449H547.310345L527.889655 247.172414h-72.386207l-21.186207 58.262069h-162.427586V105.931034zM111.227586 105.931034h137.710345v33.544828H146.537931v47.668966h88.275862v33.544827h-88.275862v86.510345h-35.310345V105.931034z m840.386207 898.648276H72.386207V388.413793h879.227586v616.165517z" fill="#FE4579" p-id="7727"></path><path d="M607.337931 508.468966l-158.896552 49.434482c-19.42069 5.296552-35.310345 26.482759-35.310345 45.903449v174.786206s-12.358621-8.827586-37.075862-3.531034c-37.075862 5.296552-67.089655 35.310345-67.089655 67.089655 0 31.77931 30.013793 51.2 67.089655 45.903448 37.075862-5.296552 65.324138-33.544828 65.324138-65.324138v-148.303448c0-14.124138 15.889655-19.42069 15.889656-19.420689l139.475862-45.903449s15.889655-5.296552 15.889655 8.827586v118.289656s-14.124138-8.827586-40.606897-5.296552c-37.075862 5.296552-67.089655 33.544828-67.089655 65.324138 0 31.77931 30.013793 51.2 67.089655 45.903448 37.075862-5.296552 67.089655-33.544828 67.089655-65.324138V534.951724c3.531034-21.186207-12.358621-31.77931-31.77931-26.482758z" fill="#FE4579" p-id="7728"></path></svg>