<?xml version="1.0" standalone="no"?><!DOCTYPE svg PUBLIC "-//W3C//DTD SVG 1.1//EN" "http://www.w3.org/Graphics/SVG/1.1/DTD/svg11.dtd"><svg t="1768213129757" class="icon" viewBox="0 0 1024 1024" version="1.1" xmlns="http://www.w3.org/2000/svg" p-id="10695" xmlns:xlink="http://www.w3.org/1999/xlink" width="200" height="200"><path d="M970.666667 213.333333H546.586667a10.573333 10.573333 0 0 1-7.54-3.126666L429.793333 100.953333A52.986667 52.986667 0 0 0 392.08 85.333333H96a53.393333 53.393333 0 0 0-53.333333 53.333334v704a53.393333 53.393333 0 0 0 53.333333 53.333333h874.666667a53.393333 53.393333 0 0 0 53.333333-53.333333V266.666667a53.393333 53.393333 0 0 0-53.333333-53.333334z m10.666666 629.333334a10.666667 10.666667 0 0 1-10.666666 10.666666H96a10.666667 10.666667 0 0 1-10.666667-10.666666V138.666667a10.666667 10.666667 0 0 1 10.666667-10.666667h296.08a10.573333 10.573333 0 0 1 7.54 3.126667l109.253333 109.253333A52.986667 52.986667 0 0 0 546.586667 256H970.666667a10.666667 10.666667 0 0 1 10.666666 10.666667zM612.1 384A112.893333 112.893333 0 0 0 533.333333 415.9 112.893333 112.893333 0 0 0 454.566667 384C392.126667 384 341.333333 434.793333 341.333333 497.233333c0 31.04 5.106667 57.08 30.533334 90.92s71.333333 74.92 148.666666 132.913334a21.333333 21.333333 0 0 0 25.6 0c77.333333-58 123.18-98.986667 148.666667-132.913334s30.533333-59.88 30.533333-90.92c0-62.44-50.793333-113.233333-113.233333-113.233333zM533.333333 677.266667c-149.333333-113.646667-149.333333-144.48-149.333333-180a70.573333 70.573333 0 0 1 131.06-36.346667 21.333333 21.333333 0 0 0 36.546667 0A70.573333 70.573333 0 0 1 682.666667 497.233333c0 35.553333 0 66.386667-149.333334 180.033334z" fill="#5C5C66" p-id="10696"></path></svg>