<?xml version="1.0" encoding="utf-8"?>
<!-- Generator: Adobe Illustrator 16.0.0, SVG Export Plug-In . SVG Version: 6.00 Build 0)  -->
<!DOCTYPE svg PUBLIC "-//W3C//DTD SVG 1.1//EN" "http://www.w3.org/Graphics/SVG/1.1/DTD/svg11.dtd">
<svg version="1.1" id="图层_1" xmlns="http://www.w3.org/2000/svg" xmlns:xlink="http://www.w3.org/1999/xlink" x="0px" y="0px"
	 width="200px" height="200px" viewBox="0 0 200 200" enable-background="new 0 0 200 200" xml:space="preserve">
<path fill="#4C5559" d="M49.849,21.137c15.474-0.013,28.029,12.521,28.042,27.994c0.011,12.409-8.142,23.346-20.037,26.881v97.222
	c0,4.421-3.584,8.005-8.006,8.005c-4.42,0-8.005-3.584-8.005-8.005l0,0V76.012c-14.823-4.468-23.218-20.106-18.751-34.93
	C26.653,29.27,37.515,21.175,49.849,21.137z M101.883,21.137c4.421,0,8.004,3.583,8.004,8.005l0,0V74.33
	c14.833,4.439,23.26,20.063,18.822,34.896c-2.706,9.04-9.779,16.113-18.822,18.819v45.188c0,4.421-3.583,8.005-8.004,8.005
	c-4.421,0-8.007-3.584-8.007-8.005l0,0v-45.188c-14.832-4.438-23.257-20.062-18.819-34.895c2.708-9.041,9.78-16.114,18.819-18.82
	V29.143C93.876,24.721,97.461,21.137,101.883,21.137z M153.914,21.137c4.421,0,8.005,3.583,8.005,8.005l0,0v97.222
	c14.823,4.467,23.222,20.105,18.752,34.931c-3.559,11.81-14.421,19.906-26.757,19.943c-15.474,0.014-28.028-12.52-28.041-27.993
	c-0.01-12.411,8.142-23.346,20.038-26.881V29.143C145.911,24.721,149.495,21.137,153.914,21.137L153.914,21.137z M153.914,141.213
	c-6.63,0-12.008,5.378-12.008,12.006c0,6.635,5.378,12.009,12.008,12.009c6.634,0,12.009-5.374,12.009-12.009
	C165.923,146.591,160.548,141.213,153.914,141.213z M101.883,89.18c-6.632,0-12.008,5.376-12.008,12.007
	c0,6.631,5.376,12.008,12.008,12.008c6.631,0,12.007-5.377,12.007-12.008C113.89,94.556,108.514,89.18,101.883,89.18z
	 M49.849,37.147c-6.632,0-12.007,5.376-12.007,12.008s5.375,12.007,12.007,12.007c6.632,0,12.008-5.375,12.008-12.007
	S56.481,37.147,49.849,37.147z"/>
</svg>
