<?xml version="1.0" standalone="no"?><!DOCTYPE svg PUBLIC "-//W3C//DTD SVG 1.1//EN" "http://www.w3.org/Graphics/SVG/1.1/DTD/svg11.dtd"><svg t="1768707786042" class="icon" viewBox="0 0 1024 1024" version="1.1" xmlns="http://www.w3.org/2000/svg" p-id="7977" xmlns:xlink="http://www.w3.org/1999/xlink" width="200" height="200"><path d="M819.2 194.56a10.24 10.24 0 0 1 10.24 10.24v614.4a10.24 10.24 0 0 1-10.24 10.24H204.8a10.24 10.24 0 0 1-10.24-10.24V204.8a10.24 10.24 0 0 1 10.24-10.24z m-10.24 20.48H215.04v593.92h593.92V215.04zM348.16 317.44a10.24 10.24 0 0 1 10.16832 9.04192L358.4 327.68v287.56992A61.46048 61.46048 0 0 1 348.16 737.28a61.44 61.44 0 0 1-10.24-122.03008V327.68a10.24 10.24 0 0 1 10.24-10.24z m0 317.44a40.96 40.96 0 1 0 0 81.92 40.96 40.96 0 0 0 0-81.92z m163.84-317.44a10.24 10.24 0 0 1 10.16832 9.04192L522.24 327.68v123.72992a61.46048 61.46048 0 0 1 0 121.18016V696.32a10.24 10.24 0 0 1-20.40832 1.19808L501.76 696.32V572.59008a61.46048 61.46048 0 0 1 0-121.18016V327.68a10.24 10.24 0 0 1 10.24-10.24z m163.84-30.72a61.44 61.44 0 0 1 10.24 122.03008V696.32a10.24 10.24 0 0 1-20.40832 1.19808L665.6 696.32V408.75008A61.46048 61.46048 0 0 1 675.84 286.72zM512 471.04a40.96 40.96 0 1 0 0 81.92 40.96 40.96 0 0 0 0-81.92z m163.84-163.84a40.96 40.96 0 1 0 0 81.92 40.96 40.96 0 0 0 0-81.92z" fill="#202020" p-id="7978"></path></svg>