<?xml version="1.0" encoding="utf-8"?>
<!-- Generator: Adobe Illustrator 16.0.0, SVG Export Plug-In . SVG Version: 6.00 Build 0)  -->
<!DOCTYPE svg PUBLIC "-//W3C//DTD SVG 1.1//EN" "http://www.w3.org/Graphics/SVG/1.1/DTD/svg11.dtd">
<svg version="1.1" id="图层_1" xmlns="http://www.w3.org/2000/svg" xmlns:xlink="http://www.w3.org/1999/xlink" x="0px" y="0px"
	 width="200px" height="200px" viewBox="0 0 200 200" enable-background="new 0 0 200 200" xml:space="preserve">
<path fill="#E2E2E2" d="M85.883,52.701h87.745c7.667,0,13.872-7.212,13.872-16.102S181.295,20.5,173.628,20.5H85.883
	c-7.664,0-13.875,7.208-13.875,16.099S78.22,52.701,85.883,52.701z M45.505,20.5H28.863c-7.665,0-13.876,7.208-13.876,16.099
	s6.212,16.102,13.876,16.102h16.642c7.666,0,13.879-7.212,13.879-16.102S53.171,20.5,45.505,20.5z M173.628,84.901H85.883
	c-7.664,0-13.875,7.208-13.875,16.098c0,8.891,6.212,16.103,13.875,16.103h87.745c7.667,0,13.872-7.212,13.872-16.103
	C187.5,92.109,181.295,84.901,173.628,84.901z M45.505,84.901H28.863c-7.665,0-13.876,7.208-13.876,16.098
	c0,8.891,6.212,16.103,13.876,16.103h16.642c7.666,0,13.879-7.212,13.879-16.103C59.384,92.109,53.171,84.901,45.505,84.901z
	 M173.628,149.298H85.883c-7.664,0-13.875,7.211-13.875,16.101c0,8.892,6.212,16.102,13.875,16.102h87.745
	c7.667,0,13.872-7.21,13.872-16.102C187.5,156.509,181.295,149.298,173.628,149.298z M45.505,149.298H28.863
	c-7.665,0-13.876,7.211-13.876,16.101c0,8.892,6.212,16.102,13.876,16.102h16.642c7.666,0,13.879-7.21,13.879-16.102
	C59.384,156.509,53.171,149.298,45.505,149.298z"/>
</svg>
