<?xml version="1.0" encoding="utf-8"?>
<!-- Generator: Adobe Illustrator 16.0.0, SVG Export Plug-In . SVG Version: 6.00 Build 0)  -->
<!DOCTYPE svg PUBLIC "-//W3C//DTD SVG 1.1//EN" "http://www.w3.org/Graphics/SVG/1.1/DTD/svg11.dtd">
<svg version="1.1" id="图层_1" xmlns="http://www.w3.org/2000/svg" xmlns:xlink="http://www.w3.org/1999/xlink" x="0px" y="0px"
	 width="200px" height="200px" viewBox="0 0 200 200" enable-background="new 0 0 200 200" xml:space="preserve">
<path fill="#434260" d="M169.444,200H30.556C13.692,199.973,0.03,187.676,0,172.5v-145C0.03,12.324,13.692,0.028,30.556,0H142.61
	c5.131-0.038,10.067,1.761,13.723,5l41.168,37.05c1.624,1.434,2.527,3.402,2.5,5.45v125C199.97,187.676,186.307,199.973,169.444,200
	L169.444,200z M30.556,15c-7.671,0-13.889,5.597-13.889,12.5v145c0,6.904,6.218,12.5,13.889,12.5l0,0h138.889
	c7.669,0,13.889-5.596,13.889-12.5l0,0V50.601l-38.889-35c-0.511-0.393-1.162-0.606-1.834-0.6L30.556,15L30.556,15z"/>
<path fill="#434260" stroke="#000000" stroke-width="3" stroke-miterlimit="10" d="M29,44.576h9.67l9.73,28.73
	c1.209,3.843,2.296,7.752,3.566,11.661h0.363c1.208-3.909,2.236-7.818,3.505-11.661l9.67-29.056h9.73v57.523h-7.917V73.306
	c0-5.146,0.665-12.573,1.088-17.785L64.114,68.55l-9.308,27.427h-5.197L40.242,68.55l-4.231-13.029
	c0.362,5.211,1.027,12.638,1.027,17.785v28.468H29V44.576z M89.196,44.576h8.402v27.166l20.307-27.166h9.369l-16.379,22.215
	l19.278,35.309h-9.307l-15.11-28.143l-8.158,10.749v17.33h-8.402V44.576z M128.904,44.576h8.945l7.918,29.772
	c1.812,6.514,2.959,12.182,4.834,18.826h0.361c1.813-6.516,3.145-12.248,4.835-18.826l7.919-29.772h8.581l-16.68,57.46h-9.974
	L128.904,44.576z"/>
<path fill="#323233" d="M158.928,109.5v61.45c0,3.77-3.765,6.827-8.408,6.827H49.63c-4.644,0-8.408-3.059-8.408-6.827V109.5H158.928
	L158.928,109.5z M116.777,149.354c0.813-0.381,1.474-0.996,1.881-1.758c1.037-1.939,0.195-4.3-1.881-5.271l-28.435-13.287
	c-0.584-0.272-1.228-0.415-1.88-0.415c-2.321,0-4.204,1.76-4.204,3.928v26.575c0,0.61,0.152,1.211,0.443,1.758
	c1.039,1.939,3.564,2.728,5.641,1.757L116.777,149.354L116.777,149.354z"/>
</svg>
