<?xml version="1.0" standalone="no"?><!DOCTYPE svg PUBLIC "-//W3C//DTD SVG 1.1//EN" "http://www.w3.org/Graphics/SVG/1.1/DTD/svg11.dtd"><svg t="1768618331692" class="icon" viewBox="0 0 1024 1024" version="1.1" xmlns="http://www.w3.org/2000/svg" p-id="3284" xmlns:xlink="http://www.w3.org/1999/xlink" width="200" height="200"><path d="M192 384h640a42.666667 42.666667 0 0 1 42.666667 42.666667v362.666666a42.666667 42.666667 0 0 1-42.666667 42.666667H192v106.666667a21.333333 21.333333 0 0 0 21.333333 21.333333h725.333334a21.333333 21.333333 0 0 0 21.333333-21.333333V308.821333L949.909333 298.666667h-126.528A98.048 98.048 0 0 1 725.333333 200.618667V72.661333L716.714667 64H213.333333a21.333333 21.333333 0 0 0-21.333333 21.333333v298.666667zM128 832H42.666667a42.666667 42.666667 0 0 1-42.666667-42.666667V426.666667a42.666667 42.666667 0 0 1 42.666667-42.666667h85.333333V85.333333a85.333333 85.333333 0 0 1 85.333333-85.333333h530.026667L1024 282.453333V938.666667a85.333333 85.333333 0 0 1-85.333333 85.333333H213.333333a85.333333 85.333333 0 0 1-85.333333-85.333333v-106.666667zM74.666667 472.490667V746.666667h38.613333v-188.928h1.322667L183.936 746.666667h33.322667l69.333333-188.928h1.322667V746.666667h38.613333V472.490667h-45.226667l-79.872 215.04H200.106667l-80.213334-215.04H74.666667z m402.709333-5.376c-36.309333 0-64.704 13.44-85.162667 41.088-19.797333 26.112-29.376 59.904-29.376 101.76 0 41.472 9.578667 75.264 29.376 101.376 20.48 26.88 48.853333 40.704 85.162667 40.704 35.989333 0 64.362667-13.44 85.162667-40.32 19.818667-25.728 29.717333-59.52 29.717333-101.76 0-42.24-9.898667-76.416-29.717333-102.144-20.8-27.264-49.173333-40.704-85.162667-40.704z m0 39.552c24.426667 0 43.242667 8.832 56.448 27.264 12.864 18.432 19.477333 43.776 19.477333 76.032s-6.613333 57.216-19.477333 75.264c-13.205333 18.048-32 27.264-56.448 27.264-24.426667 0-43.562667-9.6-56.768-28.416-12.885333-18.432-19.157333-43.008-19.157333-74.112 0-31.488 6.272-56.064 19.157333-74.496 13.525333-19.2 32.341333-28.8 56.768-28.8z m129.728-34.176L690.944 746.666667h46.549333l83.84-274.176h-41.92l-64.704 223.488h-0.981333l-64.704-223.488h-41.92z" fill="#B0D700" p-id="3285"></path></svg>