<?xml version="1.0" encoding="utf-8"?>
<!-- Generator: Adobe Illustrator 16.0.0, SVG Export Plug-In . SVG Version: 6.00 Build 0)  -->
<!DOCTYPE svg PUBLIC "-//W3C//DTD SVG 1.1//EN" "http://www.w3.org/Graphics/SVG/1.1/DTD/svg11.dtd">
<svg version="1.1" id="图层_1" xmlns="http://www.w3.org/2000/svg" xmlns:xlink="http://www.w3.org/1999/xlink" x="0px" y="0px"
	 width="200px" height="200px" viewBox="0 0 200 200" enable-background="new 0 0 200 200" xml:space="preserve">
<path fill="#30F2E9" d="M133.116,0c2.164,0,4.256,0.709,5.9,2l57.806,45.5c2.017,1.583,3.178,3.897,3.178,6.333V175
	c0,13.238-11.236,24.182-25.629,24.959L172.775,200H45.725c-14.417,0.001-26.335-10.318-27.18-23.533L18.5,175V25
	c0-13.238,11.235-24.182,25.629-24.958L45.725,0H133.116z M118.326,16.667H45.725c-4.601,0-8.473,3.163-9.012,7.358L36.649,25v150
	c0,4.225,3.445,7.781,8.014,8.275l1.062,0.059h127.05c4.6-0.001,8.472-3.163,9.01-7.359l0.063-0.975V66.667h-36.299
	c-13.812,0.002-25.434-9.489-27.045-22.083l-0.136-1.45l-0.044-1.467v-25H118.326z M144.179,75.333
	c5.581-1.292,10.328,1.3,10.444,5.55v53.1c0,6.853-9.257,13.326-20.419,14.344c-11.387,0.925-20.418-3.417-20.418-10.268
	s9.257-13.326,20.418-14.334c7.6-0.658,11.87,1.19,11.87,1.19v-30.25c0-3.233-4.627-2.033-4.627-2.033l-41.9,9.992
	c0,0-4.864,1.291-4.864,4.351V143.7c0,6.841-8.312,13.225-19.466,14.433c-11.397,1.201-20.417-3.058-20.417-9.9
	c0-6.941,9.257-13.416,20.419-14.615c7.596-0.834,11.034,0.916,11.034,0.916V96.517c0-4.342,4.628-8.875,10.445-10.167
	L144.179,75.333z M136.474,26.45v15.216c0,4.225,3.444,7.781,8.013,8.275L145.55,50h20.846L136.474,26.45z"/>
</svg>
