<?xml version="1.0" encoding="utf-8"?>
<!-- Generator: Adobe Illustrator 16.0.0, SVG Export Plug-In . SVG Version: 6.00 Build 0)  -->
<!DOCTYPE svg PUBLIC "-//W3C//DTD SVG 1.1//EN" "http://www.w3.org/Graphics/SVG/1.1/DTD/svg11.dtd">
<svg version="1.1" id="图层_1" xmlns="http://www.w3.org/2000/svg" xmlns:xlink="http://www.w3.org/1999/xlink" x="0px" y="0px"
	 width="200px" height="200px" viewBox="0 0 200 200" enable-background="new 0 0 200 200" xml:space="preserve">
<path fill="#434260" d="M172.5,200h-125c-15.177-0.027-27.473-12.324-27.5-27.5v-145C20.027,12.324,32.323,0.028,47.5,0h100.85
	c4.617-0.038,9.06,1.761,12.35,5l37.051,37.05c1.462,1.434,2.275,3.402,2.25,5.45v125C199.972,187.676,187.676,199.973,172.5,200
	L172.5,200z M47.5,15C40.596,15,35,20.597,35,27.5v145c0,6.904,5.596,12.5,12.5,12.5l0,0h125c6.902,0,12.5-5.596,12.5-12.5l0,0
	V50.601l-35-35c-0.46-0.393-1.046-0.606-1.65-0.6H47.5z"/>
<path fill="#434260" stroke="#000000" stroke-width="4" stroke-miterlimit="10" d="M42.7,47.093h9.549l9.908,27.216
	c1.194,3.6,2.268,7.261,3.521,10.923h0.358c1.194-3.662,2.208-7.323,3.461-10.923l9.549-27.216h9.609v53.881h-8.117V74.31
	c0-4.821,0.656-11.777,1.074-16.659l-4.237,12.204l-9.251,25.933h-5.133l-9.251-25.689l-4.178-12.204
	c0.358,4.882,1.015,11.838,1.015,16.659v26.667H42.7V47.093z M102.145,47.093h15.935c11.937,0,20.113,4.089,20.113,16.232
	c0,12.143-8.355,17.208-19.814,17.208h-7.938v20.441h-8.295V47.093z M117.602,74.004c8.476,0,12.474-3.295,12.474-10.374
	c0-7.079-4.355-9.458-12.712-9.458h-6.924v19.832H117.602z M143.504,94.508l4-5.432c3.124,3.749,7.658,5.966,12.473,6.102
	c4.834,0.675,9.287-2.785,9.945-7.728c0.057-0.411,0.083-0.826,0.082-1.242c0-6.102-3.7-9.885-15.577-9.885v-6.102
	c10.385,0,13.786-4.027,13.786-9.458c0.188-4.141-2.941-7.653-6.992-7.846c-0.375-0.018-0.751-0.006-1.125,0.035
	c-4.021,0.237-7.793,2.078-10.503,5.125l-4.298-5.248c4.034-4.066,9.437-6.402,15.099-6.529c9.431,0,16.115,5.004,16.115,13.913
	c0.104,5.833-3.604,11.022-9.072,12.692v0.366c6.143,1.171,10.661,6.553,10.862,12.936c0,9.764-7.938,15.439-17.905,15.439
	C154.016,101.904,147.844,99.297,143.504,94.508L143.504,94.508z"/>
<path fill="#FE4579" d="M132.363,111.79l-37.125,8.546c-4.538,0.916-8.25,4.577-8.25,7.938v30.214c0,0-2.887-1.526-8.662-0.61
	c-8.662,0.918-15.675,6.104-15.675,11.6c0,5.492,7.013,8.851,15.675,7.935c8.662-0.914,15.262-5.798,15.262-11.292v-25.637
	c0-2.443,3.712-3.357,3.712-3.357l32.587-7.937c0,0,3.712-0.914,3.712,1.526v20.448c0,0-3.3-1.526-9.486-0.916
	c-8.662,0.916-15.675,5.8-15.675,11.293c0,5.494,7.013,8.853,15.675,7.937c8.66-0.916,15.676-5.799,15.676-11.292v-41.815
	C140.613,112.706,136.9,110.874,132.363,111.79z"/>
</svg>
