<?xml version="1.0" encoding="utf-8"?>
<!-- Generator: Adobe Illustrator 16.0.0, SVG Export Plug-In . SVG Version: 6.00 Build 0)  -->
<!DOCTYPE svg PUBLIC "-//W3C//DTD SVG 1.1//EN" "http://www.w3.org/Graphics/SVG/1.1/DTD/svg11.dtd">
<svg version="1.1" id="图层_1" xmlns="http://www.w3.org/2000/svg" xmlns:xlink="http://www.w3.org/1999/xlink" x="0px" y="0px"
	 width="200px" height="200px" viewBox="0 0 200 200" enable-background="new 0 0 200 200" xml:space="preserve">
<path fill="#F99128" d="M181.511,0.417C191.724,0.417,200,8.74,200,19.006l0,0v161.097c0,10.267-8.276,18.589-18.489,18.589l0,0
	H21.276c-10.212,0-18.489-8.322-18.489-18.589l0,0V19.004c0-10.266,8.277-18.588,18.489-18.588l0,0L181.511,0.417L181.511,0.417z
	 M181.511,68.573H21.276v111.527h160.234V68.573L181.511,68.573z M82.905,83.753c2.145,0.001,4.252,0.566,6.114,1.636l49.12,28.211
	c5.908,3.394,7.963,10.966,4.588,16.906c-1.093,1.921-2.676,3.516-4.588,4.612l-49.12,28.218c-5.91,3.394-13.44,1.327-16.817-4.616
	c-1.063-1.871-1.623-3.99-1.623-6.148V96.146C70.579,89.303,76.099,83.753,82.905,83.753z M89.069,106.82v35.069l30.525-17.533
	l-30.525-17.53V106.82z M58.254,19.004H21.276v30.981h36.977L58.254,19.004L58.254,19.004z M126.046,19.004H76.742v30.981h49.304
	V19.004z M181.511,19.004h-36.975v30.981h36.975V19.004L181.511,19.004z"/>
</svg>
