<?xml version="1.0" standalone="no"?><!DOCTYPE svg PUBLIC "-//W3C//DTD SVG 1.1//EN" "http://www.w3.org/Graphics/SVG/1.1/DTD/svg11.dtd"><svg t="1768211917291" class="icon" viewBox="0 0 1024 1024" version="1.1" xmlns="http://www.w3.org/2000/svg" p-id="3446" xmlns:xlink="http://www.w3.org/1999/xlink" width="200" height="200"><path d="M511.99936 1023.99872a509.439363 509.439363 0 0 1-361.983548-150.015812A510.591362 510.591362 0 0 1 0 511.99936a510.655362 510.655362 0 0 1 150.015812-361.983548A510.655362 510.655362 0 0 1 511.99936 0a510.591362 510.591362 0 0 1 361.983548 150.015812A510.719362 510.719362 0 0 1 1023.99872 511.99936a510.719362 510.719362 0 0 1-150.015812 361.983548A510.719362 510.719362 0 0 1 511.99936 1023.99872zM511.99936 87.67989A424.767469 424.767469 0 0 0 87.67989 511.99936 424.767469 424.767469 0 0 0 511.99936 936.31883 424.767469 424.767469 0 0 0 936.31883 511.99936c0.128-233.919708-190.271762-424.31947-424.31947-424.31947z" fill="#787878" p-id="3447"></path><path d="M671.99916 456.575429a63.99992 63.99992 0 0 1 0 110.847862l-191.99976 110.847861A63.99992 63.99992 0 0 1 383.99952 622.847221V401.151499a63.99992 63.99992 0 0 1 95.99988-55.423931l191.99976 110.847861z" fill="#787878" p-id="3448"></path></svg>