<?xml version="1.0" encoding="utf-8"?>
<!-- Generator: Adobe Illustrator 16.0.0, SVG Export Plug-In . SVG Version: 6.00 Build 0)  -->
<!DOCTYPE svg PUBLIC "-//W3C//DTD SVG 1.1//EN" "http://www.w3.org/Graphics/SVG/1.1/DTD/svg11.dtd">
<svg version="1.1" id="图层_1" xmlns="http://www.w3.org/2000/svg" xmlns:xlink="http://www.w3.org/1999/xlink" x="0px" y="0px"
	 width="200px" height="200px" viewBox="0 0 200 200" enable-background="new 0 0 200 200" xml:space="preserve">
<path fill="#434260" d="M169.444,200H30.556C13.692,199.973,0.03,187.676,0,172.5v-145C0.03,12.324,13.692,0.028,30.556,0H142.61
	c5.131-0.038,10.066,1.761,13.722,5L197.5,42.05c1.624,1.434,2.528,3.402,2.5,5.45v125C199.969,187.676,186.307,199.973,169.444,200
	L169.444,200z M30.556,15c-7.671,0-13.889,5.597-13.889,12.5v145c0,6.904,6.218,12.5,13.889,12.5l0,0h138.889
	c7.669,0,13.889-5.596,13.889-12.5l0,0V50.601l-38.889-35c-0.511-0.393-1.162-0.606-1.834-0.6H30.556z"/>
<path fill="#434260" d="M74.34,100.335L58.638,74.997H47.412v25.338H36.5V37.562h22.688c14.288,0,25.045,4.626,25.045,18.148
	c0.547,8.384-5.547,15.938-14.525,18.005l16.957,26.619H74.34z M47.412,67.027h10.677c10.05,0,15.701-3.772,15.701-11.316
	c0-7.543-5.495-10.248-15.701-10.248H47.412V67.027z M98.206,37.562h12.563l12.717,31.387c1.571,4.198,2.984,8.469,4.633,12.739
	h0.629c1.569-4.27,2.904-8.541,4.553-12.739l12.561-31.742h12.64v62.842h-10.44v-31.1c0-5.623,0.863-13.736,1.411-19.429
	l-5.572,14.234l-12.092,29.962h-6.75l-12.17-29.962l-5.494-14.234c0.47,5.693,1.334,13.807,1.334,19.429v31.1H98.206V37.562z"/>
<path d="M74.76,180.077c0.883,0.47,2.763,0.704,3.749,0.704s2.103-0.234,2.986-0.704l60.058-31.875
	c1.768-0.938,2.856-2.674,2.856-4.553c0-1.876-1.144-3.613-2.914-4.553l-60.137-31.876c-1.769-0.939-4.832-0.939-6.6,0
	c-1.769,0.938-4.046,2.676-4.046,4.553v63.747C70.711,177.4,72.991,179.136,74.76,180.077z M82.14,120.88l42.857,22.768
	L82.14,166.415V120.88z"/>
</svg>
