<?xml version="1.0" encoding="utf-8"?>
<!-- Generator: Adobe Illustrator 16.0.0, SVG Export Plug-In . SVG Version: 6.00 Build 0)  -->
<!DOCTYPE svg PUBLIC "-//W3C//DTD SVG 1.1//EN" "http://www.w3.org/Graphics/SVG/1.1/DTD/svg11.dtd">
<svg version="1.1" id="图层_1" xmlns="http://www.w3.org/2000/svg" xmlns:xlink="http://www.w3.org/1999/xlink" x="0px" y="0px"
	 width="200px" height="200px" viewBox="0 0 200 200" enable-background="new 0 0 200 200" xml:space="preserve">
<path fill="#FFFFFF" d="M107.188,34.688h14.688V63.75h-14.688V34.688z M20,20h14.688v58.125c0,8.75,5.938,14.688,14.688,14.688
	h87.188c8.75,0,14.688-5.938,14.688-14.688V20h14.688v72.813h14.688V20c0-8.75-5.938-14.688-14.688-14.688H20
	C11.25,5.313,5.313,11.25,5.313,20v160c0,8.75,5.938,14.688,14.688,14.688h101.875V180H20V20z M49.063,20h87.188v58.125H49.063V20z
	 M184.375,133.438l-30.625-30.625l-10,10.313l23.125,23.125H63.75v14.688h103.125l-23.125,23.125l10.313,10.313l30.625-30.625
	L195,143.438L184.375,133.438L184.375,133.438z"/>
</svg>
