<?xml version="1.0" encoding="utf-8"?>
<!-- Generator: Adobe Illustrator 16.0.0, SVG Export Plug-In . SVG Version: 6.00 Build 0)  -->
<!DOCTYPE svg PUBLIC "-//W3C//DTD SVG 1.1//EN" "http://www.w3.org/Graphics/SVG/1.1/DTD/svg11.dtd">
<svg version="1.1" id="图层_1" xmlns="http://www.w3.org/2000/svg" xmlns:xlink="http://www.w3.org/1999/xlink" x="0px" y="0px"
	 width="200px" height="200px" viewBox="0 0 200 200" enable-background="new 0 0 200 200" xml:space="preserve">
<path fill="#EDEDED" d="M161.58,2.5c19.1,0,34.84,14.35,35.87,32.6l0.05,1.9v52c-0.002,4.142-3.36,7.499-7.502,7.498
	c-3.746-0.001-6.918-2.766-7.428-6.478L182.5,89V37c0-10.2-8.46-18.7-19.35-19.45l-1.57-0.05h-4.08V50
	c0,9.106-6.984,16.69-16.061,17.44L140,67.5H60c-9.106,0-16.69-6.984-17.44-16.06L42.5,50V17.5h-4.08
	c-11.1,0-20.07,8.04-20.86,18.06L17.5,37v126c0,10.2,8.46,18.7,19.35,19.45l1.57,0.05h94.74c4.143,0.002,7.499,3.36,7.498,7.502
	c-0.002,3.746-2.768,6.918-6.479,7.428l-1.02,0.07H38.42c-19.1,0-34.84-14.35-35.87-32.6L2.5,163V37c0-18.5,15.1-33.47,33.96-34.45
	l1.96-0.05H161.58z M175.1,114.5l0.76,0.811l20,25c1.928,2.406,2.186,5.746,0.65,8.42l-0.65,0.959l-20,25
	c-2.553,3.262-7.266,3.837-10.527,1.284c-2.973-2.327-3.754-6.5-1.822-9.743l0.631-0.92L174.38,152.5H100
	c-4.142-0.002-7.499-3.36-7.498-7.502c0.001-3.746,2.766-6.918,6.478-7.428l1.02-0.07h74.391l-10.25-12.811
	c-2.328-2.902-2.176-7.074,0.359-9.799l0.811-0.75c2.902-2.328,7.074-2.176,9.799,0.359H175.1z M142.5,17.5h-85V50
	c0.002,1.16,0.801,2.166,1.93,2.43L60,52.5h80c1.16-0.002,2.166-0.801,2.43-1.93L142.5,50V17.5z"/>
</svg>
