<?xml version="1.0" standalone="no"?><!DOCTYPE svg PUBLIC "-//W3C//DTD SVG 1.1//EN" "http://www.w3.org/Graphics/SVG/1.1/DTD/svg11.dtd"><svg t="1768188271874" class="icon" viewBox="0 0 1024 1024" version="1.1" xmlns="http://www.w3.org/2000/svg" p-id="4804" xmlns:xlink="http://www.w3.org/1999/xlink" width="200" height="200"><path d="M128 64a64 64 0 0 0-64 64v768a64 64 0 0 0 64 64h768a64 64 0 0 0 64-64V128a64 64 0 0 0-64-64H128z m0-64h768a128 128 0 0 1 128 128v768a128 128 0 0 1-128 128H128a128 128 0 0 1-128-128V128a128 128 0 0 1 128-128z" fill="#333333" p-id="4805"></path><path d="M679.552 363.392a32 32 0 1 1 48.896 41.216l-216 256a32 32 0 0 1-46.72 2.368L297.728 500.032a32 32 0 1 1 44.544-45.888l143.36 139.008 193.92-229.76z" fill="#333333" p-id="4806"></path></svg>