<?xml version="1.0" standalone="no"?><!DOCTYPE svg PUBLIC "-//W3C//DTD SVG 1.1//EN" "http://www.w3.org/Graphics/SVG/1.1/DTD/svg11.dtd"><svg t="1768212816794" class="icon" viewBox="0 0 1024 1024" version="1.1" xmlns="http://www.w3.org/2000/svg" p-id="7543" xmlns:xlink="http://www.w3.org/1999/xlink" width="200" height="200"><path d="M512.22 398.46c-63.86 0.57-115.22 51.64-114.81 114.28 0.36 62.6 52.33 113.06 116.19 112.9 63.9-0.2 115.58-50.99 115.58-113.59-0.36-63.01-52.65-113.84-116.96-113.59z m0 291.15c-99.94-0.57-180.54-80.35-180.13-178.3 0.41-97.91 81.62-177.04 181.52-176.84 99.98 0.16 180.86 79.62 180.9 177.57-0.41 98.32-81.94 177.73-182.29 177.57z m-295.8-440.87v4.07-4.07z m597.63 528.64v4.07-4.07zM436.79 895.97h151.1l17.39-118.35 17.31-6.97c23.34-9.49 45.29-21.83 65.29-36.73l14.62-10.75 114.28 44.55 75.51-127.19-96.77-73.59 2.32-18.08c3.63-24.4 3.63-49.16 0-73.55l-2.32-18.08 96.73-73.63-76.08-127.56-114.24 44.6-14.7-11.04c-19.71-14.94-41.5-27.24-64.71-36.57l-17.23-6.64-17.39-118.35H436.8l-17.47 118.35-17.27 6.92a296.62 296.62 0 0 0-65.33 36.78l-14.38 10.71-113.91-44.76-75.51 127.11 96.73 73.63-2.28 18.08a293.702 293.702 0 0 0-2.81 36.73c0.16 12.34 1.06 24.64 2.81 36.82l2.28 18.08-96.73 73.63 75.51 127.8 114.24-44.64 14.71 11.04a280.209 280.209 0 0 0 64.71 36.62l17.31 6.84 17.39 118.15v0.04z m160.96 64.02H426.9c-27.25-0.12-50.14-19.59-53.39-45.45l-13.48-92.17a348.03 348.03 0 0 1-47-26.63l-90.78 35.47c-25.13 8.75-53.15-1.51-65.77-24.07l-85-143.15c-13.36-22.73-7.78-51.36 13.24-67.94l75.91-57.75c-0.81-8.79-1.26-17.59-1.3-26.43 0-8.22 0-16.9 1.3-26.39l-75.79-57.67c-21.13-16.45-26.8-45.13-13.36-67.81l85.32-144c13.24-22.65 41.42-32.38 66.14-22.89l89.81 35.19c14.94-9.98 30.58-18.94 46.96-26.6l13.77-92.81c3.46-25.66 26.31-44.88 53.39-44.88h170.89c27.16 0.16 49.97 19.63 53.23 45.41l13.73 92.21c16.33 7.62 32.09 16.58 47.04 26.59l90.66-35.43c25.09-8.79 53.15 1.47 65.77 24.03l84.83 143.19c13.32 22.73 7.78 51.32-13.23 67.9l-75.96 57.75c1.63 17.63 1.63 35.35 0 52.99l75.79 57.66c20.81 16.09 26.68 44.6 13.68 67.28l-85.5 144.37c-13.23 22.69-41.42 32.42-66.14 22.89l-89.77-35.19a359.22 359.22 0 0 1-46.96 26.64l-13.97 92.81c-3.44 25.62-26.21 44.8-53.21 44.88z" fill="#999999" p-id="7544"></path></svg>