<?xml version="1.0" standalone="no"?><!DOCTYPE svg PUBLIC "-//W3C//DTD SVG 1.1//EN" "http://www.w3.org/Graphics/SVG/1.1/DTD/svg11.dtd"><svg t="1768212275829" class="icon" viewBox="0 0 1024 1024" version="1.1" xmlns="http://www.w3.org/2000/svg" p-id="4507" xmlns:xlink="http://www.w3.org/1999/xlink" width="200" height="200"><path d="M627.2 153.6c-25.6-12.8-55.466667-8.533333-76.8 8.533333L375.466667 307.2c-4.266667 0-4.266667 4.266667-8.533334 4.266667H213.333333c-64 0-115.2 51.2-115.2 115.2v170.666666c0 64 51.2 115.2 115.2 115.2h153.6c4.266667 0 4.266667 0 8.533334 4.266667l174.933333 145.066667c12.8 12.8 29.866667 17.066667 46.933333 17.066666 8.533333 0 21.333333-4.266667 29.866667-8.533333 25.6-12.8 42.666667-38.4 42.666667-64V217.6c0-25.6-17.066667-51.2-42.666667-64z m-17.066667 652.8c0 8.533333-4.266667 8.533333-8.533333 12.8s-8.533333 4.266667-12.8 0l-174.933333-145.066667c-12.8-12.8-29.866667-17.066667-46.933334-17.066666H213.333333c-29.866667 0-55.466667-25.6-55.466666-55.466667v-170.666667c0-29.866667 25.6-55.466667 55.466666-55.466666h153.6c17.066667 0 34.133333-4.266667 46.933334-17.066667L588.8 213.333333c4.266667-4.266667 12.8-4.266667 12.8 0s8.533333 4.266667 8.533333 12.8v580.266667zM840.533333 320c-12.8-12.8-29.866667-12.8-42.666666 0s-12.8 29.866667 0 42.666667c89.6 89.6 89.6 230.4 0 320-12.8 12.8-12.8 29.866667 0 42.666666 4.266667 4.266667 12.8 8.533333 21.333333 8.533334s17.066667-4.266667 21.333333-8.533334c110.933333-110.933333 110.933333-294.4 0-405.333333z" fill="#787878" p-id="4508"></path></svg>