<?xml version="1.0" encoding="utf-8"?>
<!-- Generator: Adobe Illustrator 16.0.0, SVG Export Plug-In . SVG Version: 6.00 Build 0)  -->
<!DOCTYPE svg PUBLIC "-//W3C//DTD SVG 1.1//EN" "http://www.w3.org/Graphics/SVG/1.1/DTD/svg11.dtd">
<svg version="1.1" id="图层_1" xmlns="http://www.w3.org/2000/svg" xmlns:xlink="http://www.w3.org/1999/xlink" x="0px" y="0px"
	 width="200px" height="200px" viewBox="0 0 200 200" enable-background="new 0 0 200 200" xml:space="preserve">
<path fill="#FFFFFF" d="M18.75,100c0,44.873,36.377,81.25,81.25,81.25s81.25-36.377,81.25-81.25S144.873,18.75,100,18.75
	S18.75,55.127,18.75,100z"/>
<path fill="#666666" d="M100,187.5c-11.816,0-23.262-2.305-34.063-6.875c-10.43-4.414-19.785-10.723-27.813-18.75
	s-14.336-17.383-18.75-27.813C14.805,123.262,12.5,111.816,12.5,100s2.305-23.262,6.875-34.063
	c4.414-10.43,10.723-19.785,18.75-27.813s17.383-14.336,27.813-18.75C76.738,14.805,88.184,12.5,100,12.5s23.262,2.305,34.063,6.875
	c10.43,4.414,19.785,10.723,27.813,18.75s14.336,17.383,18.75,27.813c4.57,10.801,6.875,22.246,6.875,34.063
	s-2.305,23.262-6.875,34.063c-4.414,10.43-10.723,19.785-18.75,27.813s-17.383,14.336-27.813,18.75
	C123.262,185.195,111.816,187.5,100,187.5z M100,25c-41.348,0-75,33.652-75,75s33.652,75,75,75s75-33.652,75-75S141.348,25,100,25z"
	/>
</svg>
