<?xml version="1.0" encoding="utf-8"?>
<!-- Generator: Adobe Illustrator 16.0.0, SVG Export Plug-In . SVG Version: 6.00 Build 0)  -->
<!DOCTYPE svg PUBLIC "-//W3C//DTD SVG 1.1//EN" "http://www.w3.org/Graphics/SVG/1.1/DTD/svg11.dtd">
<svg version="1.1" id="图层_1" xmlns="http://www.w3.org/2000/svg" xmlns:xlink="http://www.w3.org/1999/xlink" x="0px" y="0px"
	 width="200px" height="200px" viewBox="0 0 200 200" enable-background="new 0 0 200 200" xml:space="preserve">
<path fill="#4191FB" d="M128.874,148.268v-29c0-0.533-0.081-1.065,0.162-1.602c0.333-0.832,1.813-1.398,4.687-1.5
	c2.957-0.1,4.846,0.4,5.588,1.201c0.572,0.6,0.737,1.266,0.737,1.898v58c0,0.566-0.082,1.168-0.575,1.732
	c-0.74,0.867-2.545,1.436-5.75,1.334c-3.121-0.102-4.685-0.732-4.767-1.634c-0.08-0.534-0.08-1.067-0.08-1.603v-28.83h-0.002
	V148.268z M124.654,148.1c0,5.066,0.078,10.135-0.077,15.234c0,1.266,0.387,2.732-5.347,2.934c-3.641,0.133-5.81-0.898-5.81-2.867
	c-0.075-10.133,0-20.301,0-30.434c0-0.199,0-0.434,0.076-0.633c0.541-1.102,1.474-2.268,5.731-2.234
	c4.34,0.033,5.27,1.168,5.27,2.301C124.654,137.633,124.654,142.867,124.654,148.1z M155.534,148.232c0,3.898,0.079,7.801,0,11.668
	c0,2-2.431,3.199-6.077,3.033c-5.672-0.303-5.592-1.733-5.592-3c-0.08-7.77-0.08-15.566,0-23.367c0-2.033,2.188-3.133,5.835-3.133
	c3.806,0,5.834,1.031,5.834,3.1C155.613,140.467,155.534,144.334,155.534,148.232L155.534,148.232z M87.406,148.268v-12
	c0-0.533,0-1.065,0.245-1.602c0.368-0.666,1.526-1.133,3.297-1.199c1.771-0.066,3.114,0.268,3.97,0.867
	c0.915,0.633,0.855,1.332,0.855,2.033V160.4c-0.063,1.266-0.733,2.533-4.519,2.533c-3.787,0-3.908-1.27-3.908-2.469
	C87.468,156.4,87.406,152.334,87.406,148.268z M109.552,148.268v8.299c0,1.136-0.389,2.303-4.231,2.303
	c-3.647,0-4.625-1.135-4.69-2.234c-0.129-5.531-0.129-11.064,0-16.633c0-1.2,1.108-2.367,5.015-2.3
	c3.713,0.065,3.908,1.3,3.908,2.397L109.552,148.268L109.552,148.268z M83.194,148.2v7.2c0,1.1-0.699,2.133-4.895,2.166
	c-4.117,0.033-5.438-1-5.516-2.066c-0.155-4.9-0.155-9.8,0-14.732c0-1.065,1.399-2.135,5.516-2.102
	c4.196,0.034,4.973,1.066,4.973,2.168C83.115,143.268,83.194,145.732,83.194,148.2z M64.856,144.55
	c3.144,0.238,4.747,1.972,4.809,4.652c0.063,2.522-1.541,4.491-4.376,4.491c-2.775,0-4.44-1.812-4.502-4.413
	C60.725,146.758,61.958,144.945,64.856,144.55z M172.5,147.934c-0.378,5.021-2.546,8.559-6.786,8.26
	c-4.051-0.146-6.879-3.541-6.879-8.407c-0.093-4.575,2.074-8.563,6.502-8.563C169.77,139.523,172.027,142.915,172.5,147.934
	L172.5,147.934z"/>
<path fill="#434260" d="M197.744,46.394l-37.17-36.031c-3.3-3.15-7.758-4.899-12.39-4.862H47.013
	C31.788,5.527,19.452,17.485,19.425,32.244v1.591c0.277,0.035,0.555,0.07,0.833,0.105c4.738,0.114,9.5,0.217,14.215,0.579v-2.275
	c0-6.713,5.614-12.156,12.54-12.156v0.001h101.172c0.606-0.006,1.194,0.201,1.655,0.583l35.112,34.038v118.546
	c0,6.715-5.616,12.156-12.539,12.156h-125.4c-6.926,0-12.54-5.441-12.54-12.156V111.5H19.425v61.756
	c0.027,14.759,12.363,26.718,27.588,26.744h125.4c15.224-0.026,27.56-11.985,27.588-26.744V51.694
	C200.026,49.702,199.21,47.788,197.744,46.394z"/>
<path fill="#6F7070" d="M6.034,43.701h13.72l4.936,31.438l7.233-31.438h13.663l7.231,31.374l4.936-31.374h13.662L61.082,99.867
	H46.904l-8.208-35.373l-8.093,35.312H16.425L6.034,43.701z M104.881,90.578H88.463l-2.296,9.29H71.415l17.565-56.167h15.785
	l17.563,56.167h-15.153L104.881,90.578z M101.896,78.398L96.73,58.219l-5.112,20.179H101.896z M118.77,43.701h15.097l10.504,40.417
	l10.392-40.417h14.637l-17.335,56.167h-15.671L118.77,43.701z"/>
</svg>
