<?xml version="1.0" encoding="utf-8"?>
<!-- Generator: Adobe Illustrator 16.0.0, SVG Export Plug-In . SVG Version: 6.00 Build 0)  -->
<!DOCTYPE svg PUBLIC "-//W3C//DTD SVG 1.1//EN" "http://www.w3.org/Graphics/SVG/1.1/DTD/svg11.dtd">
<svg version="1.1" id="图层_1" xmlns="http://www.w3.org/2000/svg" xmlns:xlink="http://www.w3.org/1999/xlink" x="0px" y="0px"
	 width="200px" height="200px" viewBox="0 0 200 200" enable-background="new 0 0 200 200" xml:space="preserve">
<path fill="#89F5A8" d="M152,200H48.6c-20.4,0-37-16.7-37-37.2V37.2C11.6,16.7,28.2,0,48.6,0h74c10.2,0,19.601,4.6,25.9,12.7
	l33.3,42.5C186.4,61,188.9,68.3,188.9,75.7v87.1C189,183.3,172.4,200,152,200L152,200z M48.6,14.1c-12.7,0-23,10.4-23,23.1v125.6
	c0,12.8,10.3,23.101,23,23.101h103.3c12.699,0,23-10.4,23-23.101V75.7c0-4.2-1.4-8.4-4.101-11.9l-33.3-42.5
	c-3.6-4.6-9.1-7.2-14.9-7.2H48.6z"/>
<path fill="#4DDB6B" d="M150.3,121.6h-11.1V99.4h11.1V121.6L150.3,121.6z M128,132.7h-11.1V88.3H128V132.7z M105.8,149.4H94.7V71.6
	h11.1V149.4L105.8,149.4z M83.6,132.7H72.5V88.3h11.1V132.7z M61.4,121.6H50.3V99.4h11.1V121.6L61.4,121.6z"/>
</svg>
