<?xml version="1.0" encoding="utf-8"?>
<!-- Generator: Adobe Illustrator 16.0.0, SVG Export Plug-In . SVG Version: 6.00 Build 0)  -->
<!DOCTYPE svg PUBLIC "-//W3C//DTD SVG 1.1//EN" "http://www.w3.org/Graphics/SVG/1.1/DTD/svg11.dtd">
<svg version="1.1" id="图层_1" xmlns="http://www.w3.org/2000/svg" xmlns:xlink="http://www.w3.org/1999/xlink" x="0px" y="0px"
	 width="200px" height="200px" viewBox="0 0 200 200" enable-background="new 0 0 200 200" xml:space="preserve">
<path fill="#AA5EE5" d="M135.27-1v49.664c0,5.876,4.613,10.64,10.302,10.64h48.075L135.27-1z"/>
<path fill="#AA5EE5" d="M145.782,20.55l31.239,31.24H147.91c-1.174,0-2.128-0.954-2.128-2.128V20.55 M137.27,0v49.664
	c0,5.876,4.766,10.64,10.642,10.64h49.662L137.27,0z"/>
<path fill="#AA5EE5" d="M136.965,1.956H67.916c-17.039,0-30.91,12.734-31.748,28.728h8.957
	c0.825-11.276,10.719-20.216,22.791-20.216h65.338l54.363,51.66v105.668c0,11.983-10.261,21.733-22.872,21.733H67.914
	c-12.611,0-22.87-9.75-22.87-21.733v-52.292h-8.958v52.294c0,16.704,14.25,30.246,31.828,30.246h96.832
	c17.579,0,31.828-13.542,31.828-30.246V58.604L136.965,1.956z"/>
<path fill="#6F7070" d="M3,47.304h11.057l3.978,28.561l5.829-28.561h11.011l5.829,28.503l3.978-28.503h11.01l-8.327,51.029H35.939
	l-6.616-32.137l-6.522,32.081H11.374L3,47.304z M82.665,89.893H69.433l-1.85,8.44h-11.89L69.85,47.304h12.721l14.157,51.029H84.514
	L82.665,89.893z M80.26,78.827l-4.164-18.333l-4.119,18.333H80.26z M93.86,47.304h12.167l8.466,36.72l8.374-36.72h11.797
	l-13.972,51.029h-12.631L93.86,47.304z"/>
<path fill="#207FE5" d="M156.515,109.982h-0.367l-48.25,4.797c-2.581,0-4.797,1.838-4.797,4.133l0.11,37.156
	c-2.584-1.533-5.535-2.451-8.668-2.451c-7.93,0-14.203,5.207-14.203,11.791c0,6.583,6.455,11.79,14.203,11.79
	s14.018-5.207,14.203-11.79v-32.462l47.176-4.218l0.045,19.988c-2.399-1.53-5.534-2.45-8.67-2.45c-7.93,0-14.201,5.358-14.201,11.79
	c0,6.583,6.455,11.789,14.201,11.789c3.69,0,7.378-1.225,9.962-3.367c2.765-2.143,4.241-5.052,4.241-8.269v-44.249
	C161.497,111.665,159.099,109.827,156.515,109.982z"/>
</svg>
