<?xml version="1.0" encoding="utf-8"?>
<!-- Generator: Adobe Illustrator 16.0.0, SVG Export Plug-In . SVG Version: 6.00 Build 0)  -->
<!DOCTYPE svg PUBLIC "-//W3C//DTD SVG 1.1//EN" "http://www.w3.org/Graphics/SVG/1.1/DTD/svg11.dtd">
<svg version="1.1" id="图层_1" xmlns="http://www.w3.org/2000/svg" xmlns:xlink="http://www.w3.org/1999/xlink" x="0px" y="0px"
	 width="200px" height="200px" viewBox="0 0 200 200" enable-background="new 0 0 200 200" xml:space="preserve">
<path fill="#434260" d="M169.444,200H30.556C13.692,199.973,0.03,187.676,0,172.5v-145C0.03,12.324,13.692,0.028,30.556,0H142.61
	c5.131-0.038,10.067,1.761,13.723,5l41.168,37.05c1.624,1.434,2.527,3.402,2.5,5.45v125C199.97,187.676,186.307,199.973,169.444,200
	L169.444,200z M30.556,15c-7.671,0-13.889,5.597-13.889,12.5v145c0,6.904,6.218,12.5,13.889,12.5l0,0h138.889
	c7.669,0,13.889-5.596,13.889-12.5l0,0V50.601l-38.889-35c-0.511-0.393-1.162-0.606-1.834-0.6L30.556,15L30.556,15z"/>
<path fill="#6F7070" d="M18.167,43.5H31.36l4.746,31.437L43.062,43.5H56.2l6.954,31.374L67.901,43.5h13.138l-9.936,56.167H57.469
	l-7.894-35.373l-7.783,35.312H28.159L18.167,43.5z M113.223,90.377H97.434l-2.208,9.29H81.04L97.931,43.5h15.18l16.891,56.167
	h-14.573L113.223,90.377z M110.352,78.197l-4.967-20.179l-4.916,20.179H110.352z M126.579,43.5h14.518l10.101,40.417l9.992-40.417
	h14.076l-16.67,56.167h-15.07L126.579,43.5z"/>
<path fill="#FE4579" d="M126.057,111.802l-37.125,8.546c-4.538,0.916-8.25,4.577-8.25,7.938v30.214c0,0-2.887-1.526-8.662-0.61
	c-8.662,0.918-15.675,6.104-15.675,11.6c0,5.492,7.013,8.851,15.675,7.935c8.662-0.914,15.262-5.798,15.262-11.292v-25.637
	c0-2.443,3.712-3.357,3.712-3.357l32.587-7.937c0,0,3.712-0.914,3.712,1.526v20.448c0,0-3.3-1.526-9.486-0.916
	c-8.662,0.916-15.675,5.8-15.675,11.293c0,5.494,7.013,8.853,15.675,7.937c8.66-0.916,15.676-5.799,15.676-11.292v-41.815
	C134.307,112.718,130.594,110.886,126.057,111.802z"/>
</svg>
