<?xml version="1.0" standalone="no"?><!DOCTYPE svg PUBLIC "-//W3C//DTD SVG 1.1//EN" "http://www.w3.org/Graphics/SVG/1.1/DTD/svg11.dtd"><svg t="1768555847327" class="icon" viewBox="0 0 1024 1024" version="1.1" xmlns="http://www.w3.org/2000/svg" p-id="10819" xmlns:xlink="http://www.w3.org/1999/xlink" width="200" height="200"><path d="M897.706667 720.213333c-3.413333-3.413333-10.24-3.413333-13.653334-3.413333l-170.666666 34.133333c-6.826667 0-13.653333 10.24-13.653334 17.066667v191.146667c-6.826667-3.413333-10.24-3.413333-17.066666-3.413334-30.72 0-51.2 13.653333-51.2 34.133334s20.48 34.133333 51.2 34.133333 51.2-13.653333 51.2-34.133333v-208.213334l136.533333-27.306666V921.6H853.333333c-30.72 0-51.2 13.653333-51.2 34.133333s20.48 34.133333 51.2 34.133334 51.2-13.653333 51.2-34.133334v-221.866666c0-3.413333-3.413333-10.24-6.826666-13.653334zM720.213333 546.133333h61.44l-30.72-116.053333z" fill="" p-id="10820"></path><path d="M853.333333 0H368.64c-3.413333 0-3.413333 3.413333-6.826667 3.413333l-238.933333 238.933334s-3.413333 3.413333-3.413333 6.826666v655.36c0 10.24 6.826667 17.066667 17.066666 17.066667h529.066667v-153.6c0-23.893333 17.066667-44.373333 40.96-51.2l163.84-34.133333V17.066667c0-10.24-6.826667-17.066667-17.066667-17.066667zM358.4 58.026667v163.84c0 10.24-6.826667 17.066667-17.066667 17.066666H177.493333l180.906667-180.906666z m0 576.853333c0 6.826667-6.826667 13.653333-13.653333 13.653333H341.333333c-6.826667 0-13.653333-3.413333-17.066666-10.24L273.066667 505.173333l-51.2 129.706667c-3.413333 10.24-10.24 13.653333-20.48 13.653333-6.826667 0-13.653333-6.826667-13.653334-13.653333l-34.133333-273.066667c0-10.24 6.826667-17.066667 13.653333-20.48 10.24 0 17.066667 6.826667 20.48 13.653334l27.306667 208.213333 44.373333-109.226667c6.826667-13.653333 27.306667-13.653333 30.72 0l44.373334 109.226667 27.306666-208.213333c0-10.24 10.24-17.066667 20.48-13.653334 10.24 0 17.066667 10.24 13.653334 20.48l-37.546667 273.066667z m273.066667-3.413333c0 10.24-6.826667 17.066667-17.066667 17.066666s-17.066667-6.826667-17.066667-17.066666v-215.04l-54.613333 85.333333c-6.826667 10.24-23.893333 10.24-27.306667 0l-54.613333-85.333333v215.04c0 10.24-6.826667 17.066667-17.066667 17.066666s-17.066667-6.826667-17.066666-17.066666v-273.066667c0-6.826667 3.413333-13.653333 13.653333-17.066667 6.826667-3.413333 13.653333 0 20.48 6.826667l71.68 112.64 71.68-112.64c3.413333-6.826667 10.24-10.24 20.48-6.826667 6.826667 3.413333 13.653333 10.24 13.653333 17.066667v273.066667z m191.146666 17.066666H819.2c-6.826667 0-13.653333-6.826667-17.066667-13.653333l-13.653333-54.613333H716.8h-3.413333l-13.653334 54.613333c-3.413333 10.24-10.24 13.653333-20.48 13.653333-10.24-3.413333-13.653333-10.24-13.653333-20.48l68.266667-273.066666c3.413333-13.653333 30.72-13.653333 34.133333 0l68.266667 273.066666c3.413333 6.826667-3.413333 17.066667-13.653334 20.48z" fill="" p-id="10821"></path></svg>