<?xml version="1.0" encoding="utf-8"?>
<!-- Generator: Adobe Illustrator 16.0.0, SVG Export Plug-In . SVG Version: 6.00 Build 0)  -->
<!DOCTYPE svg PUBLIC "-//W3C//DTD SVG 1.1//EN" "http://www.w3.org/Graphics/SVG/1.1/DTD/svg11.dtd">
<svg version="1.1" id="图层_1" xmlns="http://www.w3.org/2000/svg" xmlns:xlink="http://www.w3.org/1999/xlink" x="0px" y="0px"
	 width="200px" height="200px" viewBox="0 0 200 200" enable-background="new 0 0 200 200" xml:space="preserve">
<path fill="#434260" d="M172.5,200h-125c-15.177-0.027-27.473-12.324-27.5-27.5v-145C20.027,12.324,32.323,0.028,47.5,0h100.85
	c4.617-0.038,9.06,1.761,12.35,5l37.051,37.05c1.462,1.434,2.275,3.402,2.25,5.45v125C199.972,187.676,187.676,199.973,172.5,200
	L172.5,200z M47.5,15C40.596,15,35,20.597,35,27.5v145c0,6.904,5.596,12.5,12.5,12.5l0,0h125c6.902,0,12.5-5.596,12.5-12.5l0,0
	V50.601l-35-35c-0.46-0.393-1.046-0.606-1.65-0.6H47.5z"/>
<path fill="#3782D3" d="M137.167,27.074h-0.332l-43.604,4.691c-2.332,0-4.335,1.797-4.335,4.041l0.1,36.327
	c-2.335-1.499-5.001-2.396-7.833-2.396c-7.167,0-12.835,5.09-12.835,11.526c0,6.437,5.833,11.527,12.835,11.527
	c7.001,0,12.667-5.09,12.834-11.527V49.527l42.633-4.124l0.04,19.542c-2.168-1.496-5-2.396-7.834-2.396
	c-7.167,0-12.834,5.239-12.834,11.527c0,6.437,5.833,11.526,12.834,11.526c3.335,0,6.667-1.198,9.002-3.293
	c2.499-2.095,3.833-4.938,3.833-8.084V30.965C141.669,28.721,139.502,26.924,137.167,27.074z"/>
<path fill="#434260" stroke="#000000" stroke-width="4" stroke-miterlimit="10" d="M43.775,116.95h7.2l4.15,22.95l2.3,14.1
	c0.95-4.75,2-9.449,3-14.15l5.7-22.949h6.35l5.75,22.949c1,4.601,2,9.351,3,14.15h0.3c0.7-5,1.5-9.55,2.2-14.15l4.25-22.899h6.65
	l-8.7,44.149h-8.6l-5.95-24.549c-0.8-3.5-1.45-6.801-2.05-10h-0.3c-0.6,3.35-1.3,6.649-2.05,10l-5.8,24.549h-8.2L43.775,116.95z
	 M100.926,116.95h7.999l8.051,22.05c1,2.95,1.899,5.95,2.949,8.95h0.301c1-3,1.85-6,2.899-8.95l8-22.3h8.05v44.149h-6.55V139
	c0-3.949,0.55-9.649,0.9-13.649l-3.55,10l-7.7,21.05h-4.3l-7.75-21.05l-3.5-10c0.3,4,0.85,9.7,0.85,13.649v21.85h-6.649V116.95z
	 M171.075,148.5h-15.35l-3.801,12.6h-7.05l14.649-44.149h8.051l14.65,44.149h-7.4L171.075,148.5z M169.375,143.051l-1.75-5.951
	c-1.5-4.999-2.8-9.699-4.2-14.699c-1.25,5-2.65,10-4.1,14.699l-1.801,5.951H169.375z"/>
</svg>
