<?xml version="1.0" standalone="no"?><!DOCTYPE svg PUBLIC "-//W3C//DTD SVG 1.1//EN" "http://www.w3.org/Graphics/SVG/1.1/DTD/svg11.dtd"><svg t="1767850917315" class="icon" viewBox="0 0 1024 1024" version="1.1" xmlns="http://www.w3.org/2000/svg" p-id="1701" xmlns:xlink="http://www.w3.org/1999/xlink" width="200" height="200"><path d="M767.488 0H177.664c-34.816 0-62.976 27.648-62.976 61.952v325.632H56.32c-31.232 0-56.32 25.088-56.32 55.808V773.12c0 30.72 25.088 55.808 56.32 55.808h58.368v133.12c0 34.304 28.16 61.952 62.976 61.952h783.36c34.816 0 62.976-27.648 62.976-61.952V240.64L767.488 0zM151.04 727.04h-48.128L50.176 506.88h45.568l33.28 151.04L168.96 506.88h52.736l38.4 153.6 33.792-153.6h44.544l-52.736 220.16h-47.104L194.56 562.688 151.04 727.04z m802.816 199.68c0 15.36-12.8 28.16-28.672 28.16h-711.68c-15.872 0-28.672-12.8-28.672-28.16v-97.792h641.024c31.232 0 56.32-25.088 56.32-55.808V443.392c0-30.72-25.088-55.808-56.32-55.808H184.832V97.28c0-15.36 12.8-28.16 28.672-28.16h512c6.656 0 12.288 5.632 12.288 12.288v124.416c0 34.304 28.16 61.952 62.976 61.952h140.8c6.656 0 12.288 5.632 12.288 12.288V926.72z m-460.288-199.68H450.56l-43.52-173.056V727.04h-41.472V506.88h66.56l39.936 150.016L511.488 506.88h66.56v220.16h-41.472v-173.056L493.568 727.04z m111.104-220.16h48.128l55.808 162.816L762.368 506.88h47.104l-78.848 220.16h-47.616l-78.336-220.16z" fill="#3482F0" p-id="1702"></path></svg>